<?xml version="1.0" encoding="UTF-8" standalone="no"?>
<svg
   xmlns:dc="http://purl.org/dc/elements/1.1/"
   xmlns:cc="http://creativecommons.org/ns#"
   xmlns:rdf="http://www.w3.org/1999/02/22-rdf-syntax-ns#"
   xmlns:svg="http://www.w3.org/2000/svg"
   xmlns="http://www.w3.org/2000/svg"
   xmlns:sodipodi="http://sodipodi.sourceforge.net/DTD/sodipodi-0.dtd"
   xmlns:inkscape="http://www.inkscape.org/namespaces/inkscape"
   inkscape:version="1.0 (4035a4fb49, 2020-05-01)"
   sodipodi:docname="share-alt.svg"
   id="svg4"
   version="1.1"
   viewBox="0 0 448 512">
  <metadata
     id="metadata10">
    <rdf:RDF>
      <cc:Work
         rdf:about="">
        <dc:format>image/svg+xml</dc:format>
        <dc:type
           rdf:resource="http://purl.org/dc/dcmitype/StillImage" />
      </cc:Work>
    </rdf:RDF>
  </metadata>
  <defs
     id="defs8" />
  <sodipodi:namedview
     inkscape:current-layer="svg4"
     inkscape:window-maximized="1"
     inkscape:window-y="-8"
     inkscape:window-x="-8"
     inkscape:cy="256"
     inkscape:cx="224"
     inkscape:zoom="1.109375"
     showgrid="false"
     id="namedview6"
     inkscape:window-height="777"
     inkscape:window-width="1280"
     inkscape:pageshadow="2"
     inkscape:pageopacity="0"
     guidetolerance="10"
     gridtolerance="10"
     objecttolerance="10"
     borderopacity="1"
     bordercolor="#666666"
     pagecolor="#ffffff" />
  <path
     id="path2"
     d="M352 320c-22.608 0-43.387 7.819-59.79 20.895l-102.486-64.054a96.551 96.551 0 0 0 0-41.683l102.486-64.054C308.613 184.181 329.392 192 352 192c53.019 0 96-42.981 96-96S405.019 0 352 0s-96 42.981-96 96c0 7.158.79 14.13 2.276 20.841L155.79 180.895C139.387 167.819 118.608 160 96 160c-53.019 0-96 42.981-96 96s42.981 96 96 96c22.608 0 43.387-7.819 59.79-20.895l102.486 64.054A96.301 96.301 0 0 0 256 416c0 53.019 42.981 96 96 96s96-42.981 96-96-42.981-96-96-96z" />
  <path
     id="path12"
     d="m 343.43662,510.91238 c -32.58729,-2.57909 -61.77093,-22.5829 -76.65983,-52.54618 -6.98319,-14.05338 -9.59521,-24.67614 -9.75244,-39.66197 -0.0676,-6.44508 0.19778,-14.55775 0.58978,-18.02817 l 0.71272,-6.30986 -50.59183,-31.5493 c -27.82549,-17.35211 -50.92727,-31.67255 -51.33726,-31.82321 -0.40999,-0.15064 -3.51932,1.63688 -6.90962,3.97228 -11.18281,7.70323 -26.71313,13.71874 -40.29477,15.60778 C 49.9589,358.8125 -2.6875491,310.27036 0.75754934,250.59155 3.9576864,195.15616 54.267838,153.78682 109.19337,161.42625 c 13.58164,1.88904 29.11196,7.90455 40.29477,15.60778 3.3903,2.3354 6.49963,4.12292 6.90962,3.97228 0.40999,-0.15066 23.51177,-14.4711 51.33726,-31.82321 l 50.59183,-31.5493 -0.71272,-6.30986 c -0.392,-3.47042 -0.65739,-11.583095 -0.58978,-18.028165 0.15615,-14.88319 2.77167,-25.546047 9.72878,-39.661972 C 282.93299,20.804942 315.13297,0.87750941 352,0.87750941 c 23.76954,0 43.66704,7.33267829 62.39622,22.99442259 13.3717,11.181705 25.28288,30.412607 30.15835,48.691448 2.12904,7.98206 2.40431,10.665324 2.40431,23.43662 0,12.7713 -0.27527,15.45456 -2.40431,23.43662 -4.87715,18.28512 -16.80031,37.53186 -30.15835,48.68257 -18.74057,15.6438 -38.70314,23.0033 -62.39622,23.0033 -21.7551,0 -39.03158,-5.75097 -58.14085,-19.35385 -1.66878,-1.18792 -5.61049,1.09871 -53.01881,30.75677 l -51.21601,32.04011 0.73713,5.98484 c 0.40542,3.29167 0.73713,10.24401 0.73713,15.44964 0,5.20563 -0.33171,12.15797 -0.73713,15.44964 l -0.73713,5.98484 51.21601,32.04011 c 47.40832,29.65806 51.35003,31.94469 53.01881,30.75677 19.10927,-13.60288 36.38575,-19.35385 58.14085,-19.35385 23.76954,0 43.66704,7.33268 62.39622,22.99443 13.3717,11.1817 25.28288,30.4126 30.15835,48.69144 2.12904,7.98206 2.40431,10.66532 2.40431,23.43662 0,12.7713 -0.27527,15.45456 -2.40431,23.43662 -4.87547,18.27884 -16.78665,37.50974 -30.15835,48.69144 -20.76417,17.36346 -44.23438,24.89946 -70.9596,22.78432 z"
     style="fill:#b3b3b3;stroke-width:0.901408" />
</svg>
